<svg xmlns="http://www.w3.org/2000/svg" width="100" height="100" viewBox="0 0 24 24">
  <circle cx="12" cy="12" r="10" fill="#007396" />
  <path d="M18.84 11.8c-.06-.08-.12-.17-.18-.25l-.4-.35c-.06-.06-.13-.11-.2-.16l-.05-.02c-.2-.08-.41-.15-.63-.2l-.1-.02c-.23-.05-.46-.07-.7-.07s-.47.02-.7.07l-.1.02c-.22.05-.43.12-.63.2l-.05.02c-.06.02-.14.08-.2.16l-.4.35c-.06.08-.12.17-.18.25c-1.16 1.56-1.82 3.49-1.82 5.55c0 .97.18 1.92.52 2.8c.05.14.14.26.25.35c.19.14.41.22.65.22c.04 0 .07-.01.11-.01c.44-.02.81-.3 1-1.04c.2-.72.3-1.57.3-2.57c0-.46-.02-.92-.06-1.36c0-.1-.02-.2-.02-.3c0-.23.04-.45.12-.66c.05-.13.12-.25.2-.36c.18-.22.39-.38.64-.49c.24-.11.5-.17.77-.17s.53.06.77.17c.25.12.46.27.64.49c.08.11.15.23.2.36c.08.21.12.43.12.66c-.01.1-.02.2-.02.3c-.03.44-.05.9-.05 1.36c0 1 .1 1.85.3 2.57c.19.74.56 1.02 1 1.04c.04 0 .07.01.11.01c.24 0 .46-.08.65-.22c.1-.09.2-.21.25-.35c.33-.88.52-1.83.52-2.8C20.66 15.29 19.99 13.36 18.84 11.8z" fill="#fff" />
</svg>
